<svg width="527" height="122" viewBox="0 0 527 122" fill="none" xmlns="http://www.w3.org/2000/svg">
<path d="M0 25C0 11.1929 11.1929 0 25 0H122V97C122 110.807 110.807 122 97 122H0V25Z" fill="#424242"/>
<path d="M31.25 43H32.8852L33.2101 41.3974C34.181 36.6086 38.4228 33 43.5 33C45.4752 33 47.3096 33.539 48.8659 34.4675L50.6875 35.5544L51.6654 33.672C53.4131 30.308 56.9476 28 61 28C65.0524 28 68.5869 30.308 70.3346 33.672L71.3125 35.5544L73.1341 34.4675C74.6904 33.539 76.5248 33 78.5 33C83.5771 33 87.819 36.6086 88.7899 41.3974L89.1148 43H90.75H90.7505H90.7509H90.7514H90.7518H90.7523H90.7528H90.7532H90.7537H90.7541H90.7546H90.7551H90.7555H90.756H90.7564H90.7569H90.7574H90.7578H90.7583H90.7588H90.7592H90.7597H90.7602H90.7606H90.7611H90.7616H90.762H90.7625H90.763H90.7634H90.7639H90.7644H90.7648H90.7653H90.7658H90.7662H90.7667H90.7672H90.7676H90.7681H90.7686H90.7691H90.7695H90.77H90.7705H90.7709H90.7714H90.7719H90.7724H90.7728H90.7733H90.7738H90.7743H90.7747H90.7752H90.7757H90.7762H90.7766H90.7771H90.7776H90.7781H90.7785H90.779H90.7795H90.78H90.7804H90.7809H90.7814H90.7819H90.7824H90.7828H90.7833H90.7838H90.7843H90.7848H90.7852H90.7857H90.7862H90.7867H90.7872H90.7876H90.7881H90.7886H90.7891H90.7896H90.7901H90.7905H90.791H90.7915H90.792H90.7925H90.793H90.7934H90.7939H90.7944H90.7949H90.7954H90.7959H90.7964H90.7968H90.7973H90.7978H90.7983H90.7988H90.7993H90.7998H90.8003H90.8007H90.8012H90.8017H90.8022H90.8027H90.8032H90.8037H90.8042H90.8046H90.8051H90.8056H90.8061H90.8066H90.8071H90.8076H90.8081H90.8086H90.8091H90.8096H90.8101H90.8105H90.811H90.8115H90.812H90.8125H90.813H90.8135H90.814H90.8145H90.815H90.8155H90.816H90.8165H90.817H90.8174H90.8179H90.8184H90.8189H90.8194H90.8199H90.8204H90.8209H90.8214H90.8219H90.8224H90.8229H90.8234H90.8239H90.8244H90.8249H90.8254H90.8259H90.8264H90.8269H90.8274H90.8279H90.8284H90.8289H90.8294H90.8298H90.8303H90.8308H90.8313H90.8318H90.8323H90.8328H90.8333H90.8338H90.8343H90.8348H90.8353H90.8358H90.8363H90.8368H90.8373H90.8378H90.8383H90.8388H90.8393H90.8398H90.8403H90.8408H90.8413H90.8418H90.8423H90.8428H90.8433H90.8438H90.8443H90.8448H90.8453H90.8458H90.8463H90.8468H90.8473H90.8478H90.8483H90.8488H90.8493H90.8499H90.8504H90.8509H90.8514H90.8519H90.8524H90.8529H90.8534H90.8539H90.8544H90.8549H90.8554H90.8559H90.8564H90.8569H90.8574H90.8579H90.8584H90.8589H90.8594H90.8599H90.8604H90.8609H90.8614H90.8619H90.8624H90.8629H90.8634H90.8639H90.8644H90.8649H90.8654H90.8659H90.8664H90.8669H90.8674H90.868H90.8685H90.869H90.8695H90.87H90.8705H90.871H90.8715H90.872H90.8725H90.873H90.8735H90.874H90.8745H90.875H90.8755H90.876H90.8765H90.877H90.8775H90.878H90.8785H90.879H90.8795H90.88H90.8805H90.881H90.8815H90.882H90.8826H90.8831H90.8836H90.8841H90.8846H90.8851H90.8856H90.8861H90.8866H90.8871H90.8876H90.8881H90.8886H90.8891H90.8896H90.8901H90.8906H90.8911H90.8916H90.8921H90.8926H90.8931H90.8936H90.8941H90.8946H90.8951H90.8956H90.8961H90.8966H90.8971H90.8976H90.8981H90.8986H90.8991H90.8996H90.9001H90.9007H90.9012H90.9016H90.9022H90.9027H90.9032H90.9037H90.9042H90.9047H90.9052H90.9057H90.9062H90.9067H90.9072H90.9077H90.9082H90.9087H90.9092H90.9097H90.9102H90.9107H90.9112H90.9117H90.9122H90.9127H90.9132H90.9137H90.9142H90.9147H90.9152H90.9157H90.9162H90.9167H90.9172H90.9177H90.9182H90.9187H90.9192H90.9196H90.9202H90.9206H90.9211H90.9216H90.9221H90.9226H90.9231H90.9236H90.9241H90.9246H90.9251H90.9256H90.9261H90.9266H90.9271H90.9276H90.9281H90.9286H90.9291H90.9296H90.9301H90.9306H90.9311H90.9316H90.9321H90.9326H90.933H90.9335H90.934H90.9345H90.935H90.9355H90.936H90.9365H90.937H90.9375H90.938H90.9385H90.939H90.9395H90.9399H90.9404H90.9409H90.9414H90.9419H90.9424H90.9429H90.9434H90.9439H90.9444H90.9449H90.9453H90.9458H90.9463H90.9468H90.9473H90.9478H90.9483H90.9488H90.9493H90.9497H90.9502H90.9507H90.9512H90.9517H90.9522H90.9527H90.9532H90.9536H90.9541H90.9546H90.9551H90.9556H90.9561H90.9566H90.957H90.9575H90.958H90.9585H90.959H90.9595H90.9599H90.9604H90.9609H90.9614H90.9619H90.9624H90.9628H90.9633H90.9638H90.9643H90.9648H90.9652H90.9657H90.9662H90.9667H90.9672H90.9676H90.9681H90.9686H90.9691H90.9696H90.97H90.9705H90.971H90.9715H90.9719H90.9724H90.9729H90.9734H90.9738H90.9743H90.9748H90.9753H90.9757H90.9762H90.9767H90.9772H90.9776H90.9781H90.9786H90.9791H90.9795H90.98H90.9805H90.9809H90.9814H90.9819H90.9824H90.9828H90.9833H90.9838H90.9842H90.9847H90.9852H90.9856H90.9861H90.9866H90.987H90.9875H90.988H90.9884H90.9889H90.9894H90.9898H90.9903H90.9908H90.9912H90.9917H90.9922H90.9926H90.9931H90.9936H90.994H90.9945H90.9949H90.9954H90.9959H90.9963H90.9968H90.9972H90.9977H90.9982H90.9986H90.9991H90.9995H91C95.4111 43 99 46.5889 99 51C99 52.0701 98.7942 53.0798 98.4187 54H23.5813C23.2058 53.0798 23 52.0701 23 51C23 46.5889 26.5889 43 31 43H31.0005H31.0009H31.0014H31.0018H31.0023H31.0028H31.0032H31.0037H31.0041H31.0046H31.0051H31.0055H31.006H31.0064H31.0069H31.0074H31.0078H31.0083H31.0088H31.0092H31.0097H31.0102H31.0106H31.0111H31.0116H31.012H31.0125H31.013H31.0134H31.0139H31.0144H31.0148H31.0153H31.0158H31.0162H31.0167H31.0172H31.0176H31.0181H31.0186H31.0191H31.0195H31.02H31.0205H31.0209H31.0214H31.0219H31.0224H31.0228H31.0233H31.0238H31.0243H31.0247H31.0252H31.0257H31.0262H31.0266H31.0271H31.0276H31.0281H31.0285H31.029H31.0295H31.03H31.0304H31.0309H31.0314H31.0319H31.0324H31.0328H31.0333H31.0338H31.0343H31.0348H31.0352H31.0357H31.0362H31.0367H31.0372H31.0376H31.0381H31.0386H31.0391H31.0396H31.0401H31.0405H31.041H31.0415H31.042H31.0425H31.043H31.0434H31.0439H31.0444H31.0449H31.0454H31.0459H31.0464H31.0468H31.0473H31.0478H31.0483H31.0488H31.0493H31.0498H31.0503H31.0507H31.0512H31.0517H31.0522H31.0527H31.0532H31.0537H31.0542H31.0547H31.0551H31.0556H31.0561H31.0566H31.0571H31.0576H31.0581H31.0586H31.0591H31.0596H31.0601H31.0605H31.061H31.0615H31.062H31.0625H31.063H31.0635H31.064H31.0645H31.065H31.0655H31.066H31.0665H31.067H31.0674H31.0679H31.0684H31.0689H31.0694H31.0699H31.0704H31.0709H31.0714H31.0719H31.0724H31.0729H31.0734H31.0739H31.0744H31.0749H31.0754H31.0759H31.0764H31.0769H31.0774H31.0779H31.0784H31.0789H31.0794H31.0799H31.0803H31.0808H31.0813H31.0818H31.0823H31.0828H31.0833H31.0838H31.0843H31.0848H31.0853H31.0858H31.0863H31.0868H31.0873H31.0878H31.0883H31.0888H31.0893H31.0898H31.0903H31.0908H31.0913H31.0918H31.0923H31.0928H31.0933H31.0938H31.0943H31.0948H31.0953H31.0958H31.0963H31.0968H31.0973H31.0978H31.0983H31.0988H31.0993H31.0999H31.1004H31.1009H31.1014H31.1019H31.1024H31.1029H31.1034H31.1039H31.1044H31.1049H31.1054H31.1059H31.1064H31.1069H31.1074H31.1079H31.1084H31.1089H31.1094H31.1099H31.1104H31.1109H31.1114H31.1119H31.1124H31.1129H31.1134H31.1139H31.1144H31.1149H31.1154H31.1159H31.1164H31.1169H31.1174H31.118H31.1185H31.119H31.1195H31.12H31.1205H31.121H31.1215H31.122H31.1225H31.123H31.1235H31.124H31.1245H31.125H31.1255H31.126H31.1265H31.127H31.1275H31.128H31.1285H31.129H31.1295H31.13H31.1305H31.131H31.1315H31.132H31.1326H31.1331H31.1336H31.1341H31.1346H31.1351H31.1356H31.1361H31.1366H31.1371H31.1376H31.1381H31.1386H31.1391H31.1396H31.1401H31.1406H31.1411H31.1416H31.1421H31.1426H31.1431H31.1436H31.1441H31.1446H31.1451H31.1456H31.1461H31.1466H31.1471H31.1476H31.1481H31.1486H31.1491H31.1496H31.1501H31.1506H31.1512H31.1517H31.1522H31.1527H31.1532H31.1537H31.1542H31.1547H31.1552H31.1557H31.1562H31.1567H31.1572H31.1577H31.1582H31.1587H31.1592H31.1597H31.1602H31.1607H31.1612H31.1617H31.1622H31.1627H31.1632H31.1637H31.1642H31.1647H31.1652H31.1657H31.1662H31.1667H31.1672H31.1677H31.1682H31.1687H31.1692H31.1697H31.1701H31.1706H31.1711H31.1716H31.1721H31.1726H31.1731H31.1736H31.1741H31.1746H31.1751H31.1756H31.1761H31.1766H31.1771H31.1776H31.1781H31.1786H31.1791H31.1796H31.1801H31.1806H31.1811H31.1816H31.1821H31.1826H31.183H31.1835H31.184H31.1845H31.185H31.1855H31.186H31.1865H31.187H31.1875H31.188H31.1885H31.189H31.1895H31.1899H31.1904H31.1909H31.1914H31.1919H31.1924H31.1929H31.1934H31.1939H31.1944H31.1949H31.1953H31.1958H31.1963H31.1968H31.1973H31.1978H31.1983H31.1988H31.1993H31.1997H31.2002H31.2007H31.2012H31.2017H31.2022H31.2027H31.2032H31.2036H31.2041H31.2046H31.2051H31.2056H31.2061H31.2066H31.207H31.2075H31.208H31.2085H31.209H31.2095H31.2099H31.2104H31.2109H31.2114H31.2119H31.2124H31.2128H31.2133H31.2138H31.2143H31.2148H31.2152H31.2157H31.2162H31.2167H31.2172H31.2176H31.2181H31.2186H31.2191H31.2196H31.22H31.2205H31.221H31.2215H31.2219H31.2224H31.2229H31.2234H31.2238H31.2243H31.2248H31.2253H31.2257H31.2262H31.2267H31.2272H31.2276H31.2281H31.2286H31.2291H31.2295H31.23H31.2305H31.2309H31.2314H31.2319H31.2324H31.2328H31.2333H31.2338H31.2342H31.2347H31.2352H31.2356H31.2361H31.2366H31.237H31.2375H31.238H31.2384H31.2389H31.2394H31.2398H31.2403H31.2408H31.2412H31.2417H31.2422H31.2426H31.2431H31.2436H31.244H31.2445H31.2449H31.2454H31.2459H31.2463H31.2468H31.2472H31.2477H31.2482H31.2486H31.2491H31.2495H31.25ZM83.6249 87.4871L82.4924 87.9125L82.3434 89.113L82.0623 91.3769C82.0623 91.3771 82.0623 91.3773 82.0623 91.3775C81.8751 92.8729 80.604 94 79.0781 94H42.9062C41.3919 94 40.1085 92.8688 39.9221 91.3769L39.6408 89.1269L39.4912 87.9303L38.3631 87.5041C29.3956 84.116 23 75.4366 23 65.2812C23 64.0264 24.0264 63 25.2812 63H96.7188C97.9736 63 99 64.0264 99 65.2812C99 75.4365 92.6048 84.1142 83.6249 87.4871Z" stroke="white" stroke-width="4"/>
<path d="M182.6 38.304L167.048 84H156.488L141 38.304H150.792L159.368 65.504C159.539 65.9733 159.773 66.848 160.072 68.128C160.413 69.3653 160.755 70.688 161.096 72.096C161.437 73.4613 161.672 74.6133 161.8 75.552C161.928 74.6133 162.141 73.4613 162.44 72.096C162.781 70.688 163.123 69.3653 163.464 68.128C163.805 66.848 164.04 65.9733 164.168 65.504L172.808 38.304H182.6ZM197.153 49.056V84H187.617V49.056H197.153ZM192.417 35.36C193.825 35.36 195.041 35.7013 196.065 36.384C197.089 37.024 197.601 38.24 197.601 40.032C197.601 41.7813 197.089 42.9973 196.065 43.68C195.041 44.3627 193.825 44.704 192.417 44.704C190.966 44.704 189.729 44.3627 188.705 43.68C187.724 42.9973 187.233 41.7813 187.233 40.032C187.233 38.24 187.724 37.024 188.705 36.384C189.729 35.7013 190.966 35.36 192.417 35.36ZM216.653 57.12C216.653 58.4427 216.589 59.7653 216.461 61.088C216.376 62.368 216.269 63.6693 216.141 64.992H216.269C216.696 64.3947 217.122 63.7973 217.549 63.2C218.018 62.6027 218.488 62.0053 218.957 61.408C219.426 60.8107 219.917 60.2347 220.429 59.68L230.221 49.056H240.973L227.085 64.224L241.805 84H230.797L220.749 69.856L216.653 73.12V84H207.117V35.36H216.653V57.12ZM256.341 57.12C256.341 58.4427 256.277 59.7653 256.149 61.088C256.063 62.368 255.957 63.6693 255.829 64.992H255.957C256.383 64.3947 256.81 63.7973 257.237 63.2C257.706 62.6027 258.175 62.0053 258.645 61.408C259.114 60.8107 259.605 60.2347 260.117 59.68L269.909 49.056H280.661L266.773 64.224L281.493 84H270.485L260.437 69.856L256.341 73.12V84H246.805V35.36H256.341V57.12ZM300.892 48.416C304.135 48.416 306.908 49.0347 309.212 50.272C311.559 51.5093 313.372 53.3013 314.652 55.648C315.932 57.9947 316.572 60.8747 316.572 64.288V68.896H294.044C294.129 71.584 294.919 73.696 296.412 75.232C297.948 76.768 300.06 77.536 302.748 77.536C305.009 77.536 307.057 77.3227 308.892 76.896C310.727 76.4267 312.625 75.7227 314.588 74.784V82.144C312.881 82.9973 311.068 83.616 309.148 84C307.271 84.4267 304.988 84.64 302.3 84.64C298.801 84.64 295.708 84 293.02 82.72C290.332 81.3973 288.22 79.4133 286.684 76.768C285.148 74.1227 284.38 70.7947 284.38 66.784C284.38 62.688 285.063 59.296 286.428 56.608C287.836 53.8773 289.777 51.8293 292.252 50.464C294.727 49.0987 297.607 48.416 300.892 48.416ZM300.956 55.2C299.121 55.2 297.585 55.7973 296.348 56.992C295.153 58.1867 294.449 60.0427 294.236 62.56H307.612C307.612 61.152 307.356 59.8933 306.844 58.784C306.375 57.6747 305.649 56.8 304.668 56.16C303.687 55.52 302.449 55.2 300.956 55.2ZM348.689 73.632C348.689 75.9787 348.134 77.984 347.025 79.648C345.915 81.2693 344.251 82.5067 342.033 83.36C339.814 84.2133 337.062 84.64 333.777 84.64C331.345 84.64 329.254 84.4693 327.505 84.128C325.755 83.8293 324.006 83.3173 322.257 82.592V74.72C324.134 75.5733 326.161 76.2773 328.337 76.832C330.513 77.3867 332.433 77.664 334.097 77.664C335.974 77.664 337.297 77.3867 338.065 76.832C338.875 76.2773 339.281 75.552 339.281 74.656C339.281 74.0587 339.11 73.5253 338.769 73.056C338.47 72.5867 337.787 72.0533 336.721 71.456C335.654 70.8587 333.99 70.0907 331.729 69.152C329.553 68.2133 327.761 67.296 326.353 66.4C324.945 65.4613 323.899 64.352 323.217 63.072C322.534 61.7493 322.193 60.1067 322.193 58.144C322.193 54.9013 323.451 52.4693 325.969 50.848C328.486 49.2267 331.835 48.416 336.017 48.416C338.193 48.416 340.262 48.6293 342.225 49.056C344.187 49.4827 346.214 50.1867 348.305 51.168L345.425 58.016C344.273 57.504 343.163 57.056 342.097 56.672C341.03 56.288 339.985 55.9893 338.961 55.776C337.979 55.5627 336.955 55.456 335.889 55.456C334.481 55.456 333.414 55.648 332.689 56.032C332.006 56.416 331.665 56.992 331.665 57.76C331.665 58.3147 331.835 58.8267 332.177 59.296C332.561 59.7227 333.265 60.192 334.289 60.704C335.355 61.216 336.913 61.8987 338.961 62.752C340.966 63.5627 342.694 64.416 344.145 65.312C345.595 66.1653 346.705 67.2533 347.473 68.576C348.283 69.856 348.689 71.5413 348.689 73.632ZM392.838 84L381.83 48.16H381.574C381.617 49.0133 381.681 50.2933 381.766 52C381.851 53.7067 381.937 55.5413 382.022 57.504C382.107 59.424 382.15 61.1733 382.15 62.752V84H373.51V38.304H386.694L397.51 73.248H397.702L409.158 38.304H422.342V84H413.318V62.368C413.318 60.9173 413.339 59.2533 413.382 57.376C413.467 55.4987 413.531 53.728 413.574 52.064C413.659 50.3573 413.723 49.0773 413.766 48.224H413.51L401.734 84H392.838ZM447.453 48.352C452.146 48.352 455.73 49.376 458.205 51.424C460.722 53.4293 461.981 56.5227 461.981 60.704V84H455.325L453.469 79.264H453.213C452.232 80.5013 451.208 81.5253 450.141 82.336C449.117 83.1467 447.922 83.7227 446.557 84.064C445.234 84.448 443.592 84.64 441.629 84.64C439.581 84.64 437.725 84.256 436.061 83.488C434.44 82.6773 433.16 81.4613 432.221 79.84C431.282 78.176 430.813 76.0853 430.813 73.568C430.813 69.856 432.114 67.1253 434.717 65.376C437.32 63.584 441.224 62.6027 446.429 62.432L452.509 62.24V60.704C452.509 58.8693 452.018 57.5253 451.037 56.672C450.098 55.8187 448.776 55.392 447.069 55.392C445.362 55.392 443.698 55.648 442.077 56.16C440.456 56.6293 438.834 57.2267 437.213 57.952L434.077 51.488C435.954 50.5067 438.024 49.7387 440.285 49.184C442.589 48.6293 444.978 48.352 447.453 48.352ZM448.797 67.936C445.725 68.0213 443.592 68.576 442.397 69.6C441.202 70.624 440.605 71.968 440.605 73.632C440.605 75.0827 441.032 76.128 441.885 76.768C442.738 77.3653 443.848 77.664 445.213 77.664C447.261 77.664 448.989 77.0667 450.397 75.872C451.805 74.6347 452.509 72.9067 452.509 70.688V67.808L448.797 67.936ZM482.814 84.64C478.931 84.64 475.753 83.1253 473.278 80.096C470.846 77.024 469.63 72.5227 469.63 66.592C469.63 60.6187 470.867 56.096 473.342 53.024C475.817 49.952 479.059 48.416 483.07 48.416C484.734 48.416 486.206 48.6507 487.486 49.12C488.766 49.5467 489.854 50.144 490.75 50.912C491.689 51.68 492.478 52.5547 493.118 53.536H493.438C493.31 52.8533 493.161 51.872 492.99 50.592C492.819 49.2693 492.734 47.9253 492.734 46.56V35.36H502.27V84H494.974L493.118 79.456H492.734C492.137 80.3947 491.369 81.2693 490.43 82.08C489.534 82.848 488.467 83.4667 487.23 83.936C485.993 84.4053 484.521 84.64 482.814 84.64ZM486.142 77.024C488.787 77.024 490.643 76.256 491.71 74.72C492.777 73.1413 493.331 70.7947 493.374 67.68V66.656C493.374 63.2427 492.841 60.64 491.774 58.848C490.75 57.056 488.83 56.16 486.014 56.16C483.923 56.16 482.281 57.0773 481.086 58.912C479.891 60.704 479.294 63.3067 479.294 66.72C479.294 70.1333 479.891 72.7147 481.086 74.464C482.281 76.1707 483.966 77.024 486.142 77.024Z" fill="#424242"/>
</svg>
